# xmcd
#
# Track frame offsets: 
#        150
#        13182
#        30124
#        48678
#        72948
#        83843
#        97637
#        112810
#        125811
#        141986
#        161403
#        179286
#        195729
#        199898
#        209607
#        227939
#        244570
#        254776
#        271179
#        280888
#        294510
#
# Disc length: 4127 seconds
#
# Revision: 0
# Processed by: cddbd v1.5.2PL0 Copyright (c) Steve Scherf et al.
# Submitted via: ExactAudioCopyFreeDBPlugin 1.0
#
DISCID=35101d15
DTITLE=Kraig Kenning - Pass The Hat
DYEAR=2013
DGENRE=Blues
TTITLE0=Can't Be Satisfied
TTITLE1=Big Road Blues
TTITLE2=St. James Infirmary
TTITLE3=Coming Back To You
TTITLE4=Let The Good Times Roll
TTITLE5=Sliding Delta Blues
TTITLE6=Roll Away The Stone
TTITLE7=If I Had Possession Over Judgement Day
TTITLE8=Someday
TTITLE9=Katey Mae
TTITLE10=Getting Off
TTITLE11=Amazing Grace
TTITLE12=1425 W. Byron Place
TTITLE13=Sonic Blues
TTITLE14=Troubled Waters
TTITLE15=Just A Dream
TTITLE16=Northland
TTITLE17=Kit Carson
TTITLE18=Like We Used To (Reprise)
TTITLE19=It Can Happen
TTITLE20=Let 'Em Roll
EXTD=
EXTT0=
EXTT1=
EXTT2=
EXTT3=
EXTT4=
EXTT5=
EXTT6=
EXTT7=
EXTT8=
EXTT9=
EXTT10=
EXTT11=
EXTT12=
EXTT13=
EXTT14=
EXTT15=
EXTT16=
EXTT17=
EXTT18=
EXTT19=
EXTT20=
PLAYORDER=
